<svg width="117" height="41" viewBox="0 0 117 41" fill="none" xmlns="http://www.w3.org/2000/svg">
<rect x="1.76965" y="1" width="114.23" height="38.4771" rx="12" fill="#F2F7F4"/>
<rect x="1.76965" y="1" width="114.23" height="38.4771" rx="12" stroke="#CEE0D0" stroke-width="2"/>
<path d="M30.0953 20.8725C30.0721 18.3536 32.2107 17.1281 32.3085 17.071C31.0973 15.3492 29.22 15.114 28.5602 15.0952C26.9835 14.9334 25.454 16.0151 24.6508 16.0151C23.8316 16.0151 22.5947 15.1108 21.2616 15.1374C19.5462 15.1632 17.9414 16.1316 17.0612 17.6353C15.2448 20.7014 16.5995 25.2071 18.3398 27.6854C19.2103 28.8992 20.2276 30.2544 21.559 30.2068C22.8616 30.1544 23.3482 29.3971 24.9202 29.3971C26.4777 29.3971 26.9346 30.2068 28.2925 30.1763C29.6905 30.1544 30.5707 28.957 31.4107 27.7323C32.4168 26.3411 32.8208 24.9711 32.8368 24.9007C32.8039 24.8898 30.1218 23.8917 30.0953 20.8725Z" fill="#010A03"/>
<path d="M27.5302 13.4649C28.2308 12.6106 28.7101 11.4484 28.5771 10.269C27.563 10.3128 26.2949 10.9529 25.5646 11.7884C24.9185 12.5246 24.3414 13.7314 24.4905 14.8662C25.6296 14.9491 26.7991 14.3058 27.5302 13.4649Z" fill="#010A03"/>
<path d="M41.9542 10.9985C41.9542 11.9184 41.6712 12.6108 41.1061 13.0759C40.5826 13.5049 39.8388 13.7199 38.8752 13.7199C38.3975 13.7199 37.9886 13.6995 37.6464 13.6589V8.63266C38.0929 8.56232 38.5738 8.52637 39.0933 8.52637C40.0111 8.52637 40.7029 8.72098 41.1694 9.1102C41.6921 9.55022 41.9542 10.1794 41.9542 10.9985ZM41.0684 11.0211C41.0684 10.4248 40.9065 9.96757 40.5826 9.64869C40.2588 9.3306 39.7859 9.17116 39.163 9.17116C38.8985 9.17116 38.6732 9.18835 38.4864 9.2243V13.0454C38.5899 13.061 38.779 13.068 39.054 13.068C39.6969 13.068 40.1931 12.8938 40.5426 12.5452C40.8921 12.1966 41.0684 11.6886 41.0684 11.0211Z" fill="#010A03"/>
<path d="M46.6507 11.802C46.6507 12.3686 46.4848 12.8329 46.1529 13.1971C45.805 13.5714 45.3441 13.7582 44.7686 13.7582C44.2138 13.7582 43.7722 13.5793 43.4427 13.2197C43.114 12.861 42.9497 12.4085 42.9497 11.8629C42.9497 11.2924 43.1188 10.8242 43.4587 10.4608C43.7986 10.0974 44.2555 9.91528 44.8311 9.91528C45.3858 9.91528 45.8315 10.0943 46.169 10.453C46.4896 10.8016 46.6507 11.2518 46.6507 11.802ZM45.7794 11.8286C45.7794 11.4886 45.704 11.197 45.5541 10.954C45.3778 10.6601 45.1269 10.5132 44.8006 10.5132C44.4631 10.5132 44.2066 10.6601 44.0303 10.954C43.8796 11.197 43.805 11.4933 43.805 11.8434C43.805 12.1834 43.8804 12.4749 44.0303 12.718C44.2122 13.0118 44.4655 13.1588 44.7926 13.1588C45.1132 13.1588 45.3649 13.0095 45.5461 12.7102C45.7016 12.4624 45.7794 12.1685 45.7794 11.8286Z" fill="#010A03"/>
<path d="M52.9481 9.99023L51.7657 13.6745H50.9962L50.5064 12.0747C50.3822 11.6753 50.2812 11.2783 50.2026 10.8843H50.1874C50.1144 11.2892 50.0134 11.6854 49.8836 12.0747L49.3633 13.6745H48.585L47.4731 9.99023H48.3365L48.7637 11.7417C48.8671 12.156 48.9521 12.5506 49.0202 12.9242H49.0355C49.098 12.6163 49.2014 12.2239 49.3473 11.7495L49.8836 9.99102H50.5681L51.082 11.712C51.2062 12.1317 51.3072 12.5358 51.385 12.925H51.4082C51.4651 12.546 51.5509 12.1419 51.6647 11.712L52.1233 9.99102H52.9481V9.99023Z" fill="#010A03"/>
<path d="M57.3034 13.6748H56.4634V11.5645C56.4634 10.9143 56.21 10.5891 55.7018 10.5891C55.4525 10.5891 55.2513 10.6782 55.095 10.8572C54.9403 11.0362 54.8618 11.2472 54.8618 11.4887V13.674H54.0217V11.0432C54.0217 10.7197 54.0113 10.3687 53.9912 9.9889H54.7295L54.7688 10.5649H54.792C54.8898 10.3859 55.0357 10.2382 55.2273 10.1202C55.4549 9.98265 55.7098 9.91309 55.9888 9.91309C56.3415 9.91309 56.6349 10.0241 56.8682 10.2468C57.1583 10.5196 57.3034 10.9268 57.3034 11.4676V13.6748Z" fill="#010A03"/>
<path d="M59.6199 13.6746H58.7806V8.2998H59.6199V13.6746Z" fill="#010A03"/>
<path d="M64.566 11.802C64.566 12.3686 64.4001 12.8329 64.0682 13.1971C63.7203 13.5714 63.2586 13.7582 62.6838 13.7582C62.1283 13.7582 61.6866 13.5793 61.358 13.2197C61.0293 12.861 60.865 12.4085 60.865 11.8629C60.865 11.2924 61.0341 10.8242 61.374 10.4608C61.7139 10.0974 62.1708 9.91528 62.7456 9.91528C63.3011 9.91528 63.746 10.0943 64.0842 10.453C64.4049 10.8016 64.566 11.2518 64.566 11.802ZM63.6939 11.8286C63.6939 11.4886 63.6185 11.197 63.4686 10.954C63.2931 10.6601 63.0413 10.5132 62.7159 10.5132C62.3776 10.5132 62.1211 10.6601 61.9456 10.954C61.7949 11.197 61.7203 11.4933 61.7203 11.8434C61.7203 12.1834 61.7957 12.4749 61.9456 12.718C62.1275 13.0118 62.3808 13.1588 62.7079 13.1588C63.0285 13.1588 63.2794 13.0095 63.4606 12.7102C63.6169 12.4624 63.6939 12.1685 63.6939 11.8286Z" fill="#010A03"/>
<path d="M68.6316 13.6746H67.8773L67.8148 13.2502H67.7915C67.5334 13.5886 67.1655 13.7582 66.6877 13.7582C66.331 13.7582 66.0424 13.6465 65.8252 13.4245C65.628 13.2229 65.5294 12.972 65.5294 12.6742C65.5294 12.224 65.7218 11.8809 66.109 11.6433C66.4954 11.4057 67.0388 11.2893 67.7386 11.2947V11.226C67.7386 10.7406 67.4773 10.4983 66.9539 10.4983C66.5811 10.4983 66.2525 10.5898 65.9687 10.7711L65.798 10.2334C66.1491 10.0216 66.5827 9.91528 67.0942 9.91528C68.0817 9.91528 68.5771 10.4233 68.5771 11.4393V12.7961C68.5771 13.1642 68.5956 13.4573 68.6316 13.6746ZM67.7595 12.4085V11.8403C66.8328 11.8246 66.3695 12.0724 66.3695 12.5828C66.3695 12.775 66.4224 12.9188 66.5306 13.015C66.6388 13.1111 66.7767 13.1588 66.941 13.1588C67.1254 13.1588 67.2978 13.1017 67.4549 12.9884C67.6128 12.8743 67.7098 12.7297 67.7459 12.5523C67.7547 12.5124 67.7595 12.464 67.7595 12.4085Z" fill="#010A03"/>
<path d="M73.4052 13.6746H72.6597L72.6204 13.083H72.5972C72.3591 13.5332 71.9535 13.7583 71.3835 13.7583C70.9282 13.7583 70.5491 13.584 70.2485 13.2354C69.9479 12.8868 69.798 12.4343 69.798 11.8786C69.798 11.2823 69.9607 10.7992 70.2878 10.4304C70.6044 10.0865 70.9924 9.91452 71.4541 9.91452C71.9615 9.91452 72.3166 10.081 72.5186 10.4147H72.5346V8.2998H73.3755V12.682C73.3755 13.0408 73.3852 13.3714 73.4052 13.6746ZM72.5346 12.1209V11.5066C72.5346 11.4003 72.5266 11.3143 72.5114 11.2487C72.4641 11.0517 72.3623 10.886 72.2076 10.7524C72.0513 10.6187 71.8629 10.5515 71.6457 10.5515C71.3322 10.5515 71.0869 10.6726 70.9066 10.9157C70.7278 11.1588 70.6373 11.4691 70.6373 11.8481C70.6373 12.2123 70.723 12.5078 70.8954 12.7352C71.0773 12.9775 71.3226 13.0986 71.6296 13.0986C71.9054 13.0986 72.1258 12.9978 72.2934 12.7954C72.4553 12.6086 72.5346 12.3835 72.5346 12.1209Z" fill="#010A03"/>
<path d="M80.59 11.802C80.59 12.3686 80.4241 12.8329 80.0923 13.1971C79.7444 13.5714 79.2842 13.7582 78.7079 13.7582C78.154 13.7582 77.7123 13.5793 77.382 13.2197C77.0534 12.861 76.889 12.4085 76.889 11.8629C76.889 11.2924 77.0582 10.8242 77.3981 10.4608C77.7379 10.0974 78.1949 9.91528 78.7712 9.91528C79.3251 9.91528 79.7716 10.0943 80.1083 10.453C80.4289 10.8016 80.59 11.2518 80.59 11.802ZM79.7195 11.8286C79.7195 11.4886 79.6442 11.197 79.4943 10.954C79.3171 10.6601 79.067 10.5132 78.7399 10.5132C78.4033 10.5132 78.1468 10.6601 77.9696 10.954C77.8189 11.197 77.7444 11.4933 77.7444 11.8434C77.7444 12.1834 77.8197 12.4749 77.9696 12.718C78.1516 13.0118 78.4049 13.1588 78.7319 13.1588C79.0526 13.1588 79.3051 13.0095 79.4862 12.7102C79.6409 12.4624 79.7195 12.1685 79.7195 11.8286Z" fill="#010A03"/>
<path d="M85.107 13.6748H84.2677V11.5645C84.2677 10.9143 84.0144 10.5891 83.5054 10.5891C83.2561 10.5891 83.0549 10.6782 82.8993 10.8572C82.7438 11.0362 82.6661 11.2472 82.6661 11.4887V13.674H81.8252V11.0432C81.8252 10.7197 81.8156 10.3687 81.7955 9.9889H82.533L82.5723 10.5649H82.5955C82.6941 10.3859 82.84 10.2382 83.0308 10.1202C83.2593 9.98265 83.5134 9.91309 83.7931 9.91309C84.145 9.91309 84.4384 10.0241 84.6717 10.2468C84.9627 10.5196 85.107 10.9268 85.107 11.4676V13.6748Z" fill="#010A03"/>
<path d="M90.7608 10.6038H89.8357V12.3936C89.8357 12.8485 90 13.0759 90.3255 13.0759C90.4762 13.0759 90.6012 13.0634 90.6998 13.0376L90.7215 13.659C90.5555 13.7199 90.3375 13.7504 90.069 13.7504C89.7371 13.7504 89.479 13.6519 89.2922 13.455C89.1046 13.258 89.0117 12.9267 89.0117 12.4616V10.6038H88.4594V9.99031H89.0117V9.31504L89.8349 9.07275V9.98953H90.76V10.6038H90.7608Z" fill="#010A03"/>
<path d="M95.2081 13.6746H94.3672V11.58C94.3672 10.9196 94.1139 10.589 93.6064 10.589C93.2169 10.589 92.9507 10.7805 92.8048 11.1635C92.78 11.244 92.7656 11.3424 92.7656 11.4581V13.6738H91.9263V8.2998H92.7656V10.5202H92.7816C93.0461 10.1162 93.4253 9.91452 93.9167 9.91452C94.2646 9.91452 94.5523 10.0255 94.7808 10.2482C95.0654 10.5257 95.2081 10.9384 95.2081 11.4839V13.6746Z" fill="#010A03"/>
<path d="M99.7956 11.6581C99.7956 11.8051 99.7843 11.9285 99.7643 12.0294H97.2449C97.2561 12.3936 97.3763 12.671 97.6096 12.8633C97.8228 13.0352 98.0978 13.1212 98.4344 13.1212C98.8072 13.1212 99.1471 13.0634 99.4533 12.9469L99.5847 13.5159C99.2264 13.6675 98.8048 13.7433 98.3166 13.7433C97.7314 13.7433 97.2705 13.5753 96.937 13.2392C96.602 12.9032 96.436 12.4522 96.436 11.8863C96.436 11.3307 96.5907 10.868 96.9026 10.4991C97.228 10.1052 97.6681 9.9082 98.2236 9.9082C98.7671 9.9082 99.1799 10.1052 99.4589 10.4991C99.6841 10.8117 99.7956 11.1986 99.7956 11.6581ZM98.994 11.4463C99.0004 11.2033 98.9451 10.9938 98.8312 10.8172C98.6853 10.5897 98.4633 10.4756 98.1627 10.4756C97.8885 10.4756 97.6649 10.5866 97.4942 10.8093C97.3547 10.9868 97.2721 11.1986 97.2449 11.4463H98.994Z" fill="#010A03"/>
<path d="M46.6523 29.1213H44.8318L43.8346 26.0661H40.3685L39.4186 29.1213H37.6462L41.0803 18.7202H43.2014L46.6523 29.1213ZM43.534 24.7844L42.6322 22.0684C42.5368 21.791 42.3581 21.1376 42.0943 20.1091H42.0623C41.9573 20.5514 41.7881 21.2048 41.5557 22.0684L40.6699 24.7844H43.534Z" fill="#010A03"/>
<path d="M55.4836 25.2792C55.4836 26.5547 55.1301 27.563 54.423 28.3031C53.7898 28.962 53.0034 29.291 52.0647 29.291C51.0515 29.291 50.3236 28.9362 49.8803 28.2265H49.8483V32.1773H48.1393V24.0905C48.1393 23.2886 48.1176 22.4656 48.0759 21.6215H49.5789L49.6743 22.8103H49.7064C50.2763 21.9146 51.1413 21.4675 52.302 21.4675C53.2094 21.4675 53.9669 21.8169 54.5729 22.5164C55.1806 23.2167 55.4836 24.1374 55.4836 25.2792ZM53.7425 25.3402C53.7425 24.6102 53.5741 24.0084 53.2359 23.5348C52.8663 23.0408 52.3701 22.7938 51.7481 22.7938C51.3264 22.7938 50.9433 22.9314 50.601 23.2026C50.2579 23.4762 50.0334 23.8333 49.9284 24.2757C49.8755 24.482 49.8491 24.6508 49.8491 24.7837V26.0342C49.8491 26.5797 50.0206 27.0401 50.3637 27.416C50.7068 27.792 51.1525 27.9795 51.7008 27.9795C52.3445 27.9795 52.8455 27.7372 53.2038 27.2542C53.5629 26.7704 53.7425 26.1327 53.7425 25.3402Z" fill="#010A03"/>
<path d="M64.3309 25.2792C64.3309 26.5547 63.9774 27.563 63.2696 28.3031C62.6371 28.962 61.8507 29.291 60.9121 29.291C59.8988 29.291 59.171 28.9362 58.7285 28.2265H58.6964V32.1773H56.9874V24.0905C56.9874 23.2886 56.9658 22.4656 56.9241 21.6215H58.4271L58.5225 22.8103H58.5545C59.1237 21.9146 59.9886 21.4675 61.1501 21.4675C62.0568 21.4675 62.8143 21.8169 63.4219 22.5164C64.0271 23.2167 64.3309 24.1374 64.3309 25.2792ZM62.5898 25.3402C62.5898 24.6102 62.4207 24.0084 62.0824 23.5348C61.7129 23.0408 61.2183 22.7938 60.5954 22.7938C60.173 22.7938 59.7906 22.9314 59.4475 23.2026C59.1044 23.4762 58.8808 23.8333 58.7758 24.2757C58.7237 24.482 58.6964 24.6508 58.6964 24.7837V26.0342C58.6964 26.5797 58.868 27.0401 59.2094 27.416C59.5525 27.7912 59.9982 27.9795 60.5481 27.9795C61.1918 27.9795 61.6928 27.7372 62.0511 27.2542C62.4103 26.7704 62.5898 26.1327 62.5898 25.3402Z" fill="#010A03"/>
<path d="M74.2227 26.2045C74.2227 27.0893 73.9076 27.8091 73.2752 28.3648C72.5802 28.9721 71.6126 29.2753 70.3694 29.2753C69.2215 29.2753 68.3012 29.0596 67.6046 28.6274L68.0006 27.2386C68.7509 27.6809 69.5742 27.9029 70.4712 27.9029C71.1148 27.9029 71.6158 27.7606 71.9758 27.4777C72.3341 27.1948 72.5128 26.8149 72.5128 26.3413C72.5128 25.9193 72.3653 25.5637 72.0696 25.2753C71.7754 24.9869 71.284 24.7188 70.5978 24.471C68.7301 23.7919 67.797 22.7969 67.797 21.4886C67.797 20.6335 68.1241 19.9325 68.779 19.387C69.4315 18.8406 70.302 18.5679 71.3906 18.5679C72.3613 18.5679 73.1678 18.7328 73.8114 19.0618L73.3842 20.4202C72.783 20.1013 72.1032 19.9419 71.3425 19.9419C70.7413 19.9419 70.2716 20.0865 69.9349 20.3741C69.6503 20.6312 69.5076 20.9446 69.5076 21.3159C69.5076 21.727 69.6704 22.0669 69.9974 22.3342C70.282 22.5812 70.799 22.8485 71.5493 23.1369C72.4672 23.4972 73.1413 23.9185 73.575 24.4015C74.007 24.8829 74.2227 25.4855 74.2227 26.2045Z" fill="#010A03"/>
<path d="M79.8732 22.8719H77.9894V26.5132C77.9894 27.4394 78.3213 27.9021 78.9866 27.9021C79.292 27.9021 79.5453 27.8763 79.7457 27.8247L79.793 29.09C79.4563 29.2128 79.0131 29.2745 78.464 29.2745C77.789 29.2745 77.2615 29.0736 76.8808 28.6727C76.5016 28.271 76.3108 27.5973 76.3108 26.6508V22.8703H75.1886V21.6198H76.3108V20.2466L77.9894 19.7527V21.6198H79.8732V22.8719Z" fill="#010A03"/>
<path d="M88.3727 25.3097C88.3727 26.4625 88.0344 27.4089 87.3594 28.1491C86.6516 28.9111 85.7121 29.2909 84.541 29.2909C83.4123 29.2909 82.5137 28.926 81.8436 28.196C81.1734 27.466 80.8384 26.5445 80.8384 25.4339C80.8384 24.2717 81.1831 23.3198 81.8749 22.5796C82.565 21.8387 83.4965 21.4683 84.6676 21.4683C85.7963 21.4683 86.7045 21.8333 87.3899 22.564C88.0456 23.2729 88.3727 24.1881 88.3727 25.3097ZM86.5995 25.3636C86.5995 24.6719 86.448 24.0787 86.141 23.584C85.7827 22.9853 85.2704 22.6867 84.6067 22.6867C83.9197 22.6867 83.3979 22.9861 83.0396 23.584C82.7326 24.0795 82.5811 24.6821 82.5811 25.3948C82.5811 26.0865 82.7326 26.6797 83.0396 27.1737C83.4091 27.7724 83.9254 28.0709 84.5915 28.0709C85.244 28.0709 85.7562 27.7661 86.1258 27.1581C86.4408 26.6539 86.5995 26.0545 86.5995 25.3636Z" fill="#010A03"/>
<path d="M93.9277 23.0869C93.7586 23.0565 93.5782 23.0408 93.389 23.0408C92.7878 23.0408 92.3229 23.262 91.9958 23.7051C91.7113 24.0959 91.5686 24.5899 91.5686 25.1862V29.1214H89.8604L89.8764 23.9834C89.8764 23.119 89.8547 22.3319 89.8123 21.6223H91.3008L91.3634 23.0572H91.4107C91.591 22.5641 91.8756 22.167 92.2652 21.8693C92.6459 21.6012 93.0572 21.4675 93.5005 21.4675C93.6584 21.4675 93.8011 21.4785 93.9277 21.498V23.0869Z" fill="#010A03"/>
<path d="M101.571 25.0165C101.571 25.3151 101.551 25.5667 101.509 25.7723H96.3815C96.4015 26.5132 96.6492 27.0799 97.1254 27.4706C97.5574 27.82 98.1162 27.9951 98.8023 27.9951C99.5614 27.9951 100.254 27.8771 100.877 27.6402L101.145 28.797C100.417 29.1065 99.5574 29.2604 98.5659 29.2604C97.3731 29.2604 96.4368 28.9181 95.7554 28.2342C95.0757 27.5504 94.735 26.632 94.735 25.48C94.735 24.3491 95.0516 23.4073 95.6857 22.6562C96.3494 21.8543 97.2464 21.4534 98.3751 21.4534C99.4837 21.4534 100.323 21.8543 100.893 22.6562C101.344 23.2932 101.571 24.081 101.571 25.0165ZM99.9414 24.5843C99.9526 24.0904 99.8412 23.6636 99.6095 23.3033C99.3137 22.8399 98.8592 22.6085 98.2476 22.6085C97.6889 22.6085 97.2344 22.8344 96.8873 23.2877C96.6027 23.648 96.4336 24.0802 96.3815 24.5835H99.9414V24.5843Z" fill="#010A03"/>
</svg>
