<svg width="115" height="39" viewBox="0 0 115 39" fill="none" xmlns="http://www.w3.org/2000/svg">
<rect x="1.3407" y="1" width="112.23" height="36.4771" rx="11" fill="#F2F7F4"/>
<rect x="1.3407" y="1" width="112.23" height="36.4771" rx="11" stroke="#010A03" stroke-width="2"/>
<path d="M28.6664 19.8725C28.6431 17.3536 30.7818 16.1281 30.8796 16.071C29.6684 14.3492 27.791 14.114 27.1313 14.0952C25.5545 13.9334 24.0251 15.0151 23.2219 15.0151C22.4026 15.0151 21.1657 14.1108 19.8327 14.1374C18.1172 14.1632 16.5124 15.1316 15.6323 16.6353C13.8158 19.7014 15.1705 24.2071 16.9108 26.6854C17.7814 27.8992 18.7986 29.2544 20.1301 29.2068C21.4327 29.1544 21.9192 28.3971 23.4912 28.3971C25.0487 28.3971 25.5056 29.2068 26.8635 29.1763C28.2615 29.1544 29.1417 27.957 29.9818 26.7323C30.9878 25.3411 31.3918 23.9711 31.4078 23.9007C31.375 23.8898 28.6928 22.8917 28.6664 19.8725Z" fill="#010A03"/>
<path d="M26.1012 12.4649C26.8018 11.6106 27.2812 10.4484 27.1481 9.26904C26.1341 9.31281 24.8659 9.95291 24.1357 10.7884C23.4896 11.5246 22.9124 12.7314 23.0615 13.8662C24.2006 13.9491 25.3702 13.3058 26.1012 12.4649Z" fill="#010A03"/>
<path d="M40.5252 9.99846C40.5252 10.9184 40.2423 11.6108 39.6771 12.0759C39.1537 12.5049 38.4098 12.7199 37.4463 12.7199C36.9685 12.7199 36.5597 12.6995 36.2174 12.6589V7.63266C36.6639 7.56232 37.1449 7.52637 37.6643 7.52637C38.5821 7.52637 39.2739 7.72098 39.7405 8.1102C40.2631 8.55022 40.5252 9.17938 40.5252 9.99846ZM39.6395 10.0211C39.6395 9.42479 39.4775 8.96757 39.1537 8.64869C38.8298 8.3306 38.3569 8.17116 37.734 8.17116C37.4695 8.17116 37.2443 8.18835 37.0575 8.2243V12.0454C37.1609 12.061 37.3501 12.068 37.625 12.068C38.2679 12.068 38.7641 11.8938 39.1136 11.5452C39.4631 11.1966 39.6395 10.6886 39.6395 10.0211Z" fill="#010A03"/>
<path d="M45.2218 10.802C45.2218 11.3686 45.0558 11.8329 44.724 12.1971C44.3761 12.5714 43.9151 12.7582 43.3396 12.7582C42.7849 12.7582 42.3432 12.5793 42.0137 12.2197C41.6851 11.861 41.5208 11.4085 41.5208 10.8629C41.5208 10.2924 41.6899 9.82424 42.0298 9.46082C42.3697 9.09739 42.8266 8.91528 43.4021 8.91528C43.9568 8.91528 44.4025 9.09426 44.74 9.453C45.0606 9.80158 45.2218 10.2518 45.2218 10.802ZM44.3504 10.8286C44.3504 10.4886 44.2751 10.197 44.1252 9.95398C43.9488 9.66011 43.6979 9.51318 43.3717 9.51318C43.0342 9.51318 42.7777 9.66011 42.6013 9.95398C42.4506 10.197 42.3761 10.4933 42.3761 10.8434C42.3761 11.1834 42.4514 11.4749 42.6013 11.718C42.7833 12.0118 43.0366 12.1588 43.3636 12.1588C43.6843 12.1588 43.936 12.0095 44.1172 11.7102C44.2727 11.4624 44.3504 11.1685 44.3504 10.8286Z" fill="#010A03"/>
<path d="M51.5191 8.99023L50.3368 12.6745H49.5672L49.0775 11.0747C48.9532 10.6753 48.8522 10.2783 48.7737 9.88434H48.7584C48.6855 10.2892 48.5845 10.6854 48.4546 11.0747L47.9344 12.6745H47.156L46.0442 8.99023H46.9075L47.3348 10.7417C47.4382 11.156 47.5232 11.5506 47.5913 11.9242H47.6065C47.669 11.6163 47.7724 11.2239 47.9183 10.7495L48.4546 8.99102H49.1392L49.653 10.712C49.7773 11.1317 49.8783 11.5358 49.956 11.925H49.9793C50.0362 11.546 50.122 11.1419 50.2358 10.712L50.6943 8.99102H51.5191V8.99023Z" fill="#010A03"/>
<path d="M55.8745 12.6748H55.0344V10.5645C55.0344 9.91427 54.7811 9.58914 54.2729 9.58914C54.0236 9.58914 53.8224 9.67824 53.6661 9.85722C53.5114 10.0362 53.4328 10.2472 53.4328 10.4887V12.674H52.5927V10.0432C52.5927 9.71966 52.5823 9.36874 52.5623 8.9889H53.3005L53.3398 9.56491H53.3631C53.4609 9.38593 53.6067 9.23822 53.7983 9.1202C54.026 8.98265 54.2809 8.91309 54.5598 8.91309C54.9126 8.91309 55.2059 9.02407 55.4392 9.24681C55.7294 9.51958 55.8745 9.92678 55.8745 10.4676V12.6748Z" fill="#010A03"/>
<path d="M58.191 12.6746H57.3517V7.2998H58.191V12.6746Z" fill="#010A03"/>
<path d="M63.1371 10.802C63.1371 11.3686 62.9711 11.8329 62.6393 12.1971C62.2914 12.5714 61.8296 12.7582 61.2549 12.7582C60.6994 12.7582 60.2577 12.5793 59.929 12.2197C59.6004 11.861 59.436 11.4085 59.436 10.8629C59.436 10.2924 59.6052 9.82424 59.9451 9.46082C60.2849 9.09739 60.7419 8.91528 61.3166 8.91528C61.8721 8.91528 62.317 9.09426 62.6553 9.453C62.9759 9.80158 63.1371 10.2518 63.1371 10.802ZM62.2649 10.8286C62.2649 10.4886 62.1896 10.197 62.0396 9.95398C61.8641 9.66011 61.6124 9.51318 61.2869 9.51318C60.9487 9.51318 60.6922 9.66011 60.5166 9.95398C60.3659 10.197 60.2913 10.4933 60.2913 10.8434C60.2913 11.1834 60.3667 11.4749 60.5166 11.718C60.6986 12.0118 60.9519 12.1588 61.2789 12.1588C61.5996 12.1588 61.8505 12.0095 62.0316 11.7102C62.1879 11.4624 62.2649 11.1685 62.2649 10.8286Z" fill="#010A03"/>
<path d="M67.2027 12.6746H66.4484L66.3858 12.2502H66.3626C66.1045 12.5886 65.7365 12.7582 65.2588 12.7582C64.9021 12.7582 64.6135 12.6465 64.3963 12.4245C64.1991 12.2229 64.1005 11.972 64.1005 11.6742C64.1005 11.224 64.2928 10.8809 64.68 10.6433C65.0664 10.4057 65.6099 10.2893 66.3097 10.2947V10.226C66.3097 9.74062 66.0484 9.49833 65.5249 9.49833C65.1522 9.49833 64.8235 9.58977 64.5397 9.7711L64.369 9.23338C64.7201 9.02158 65.1538 8.91528 65.6652 8.91528C66.6528 8.91528 67.1482 9.4233 67.1482 10.4393V11.7961C67.1482 12.1642 67.1666 12.4573 67.2027 12.6746ZM66.3305 11.4085V10.8403C65.4039 10.8246 64.9405 11.0724 64.9405 11.5828C64.9405 11.775 64.9935 11.9188 65.1017 12.015C65.2099 12.1111 65.3478 12.1588 65.5121 12.1588C65.6965 12.1588 65.8688 12.1017 66.0259 11.9884C66.1838 11.8743 66.2808 11.7297 66.3169 11.5523C66.3257 11.5124 66.3305 11.464 66.3305 11.4085Z" fill="#010A03"/>
<path d="M71.9762 12.6746H71.2307L71.1915 12.083H71.1682C70.9301 12.5332 70.5245 12.7583 69.9546 12.7583C69.4993 12.7583 69.1201 12.584 68.8195 12.2354C68.5189 11.8868 68.369 11.4343 68.369 10.8786C68.369 10.2823 68.5317 9.79925 68.8588 9.43035C69.1754 9.08646 69.5634 8.91452 70.0251 8.91452C70.5325 8.91452 70.8877 9.08099 71.0897 9.41472H71.1057V7.2998H71.9466V11.682C71.9466 12.0408 71.9562 12.3714 71.9762 12.6746ZM71.1057 11.1209V10.5066C71.1057 10.4003 71.0977 10.3143 71.0824 10.2487C71.0351 10.0517 70.9333 9.886 70.7786 9.75236C70.6223 9.61871 70.4339 9.55149 70.2167 9.55149C69.9033 9.55149 69.658 9.67264 69.4776 9.9157C69.2989 10.1588 69.2083 10.4691 69.2083 10.8481C69.2083 11.2123 69.2941 11.5078 69.4664 11.7352C69.6484 11.9775 69.8937 12.0986 70.2007 12.0986C70.4764 12.0986 70.6969 11.9978 70.8644 11.7954C71.0263 11.6086 71.1057 11.3835 71.1057 11.1209Z" fill="#010A03"/>
<path d="M79.1611 10.802C79.1611 11.3686 78.9952 11.8329 78.6633 12.1971C78.3154 12.5714 77.8553 12.7582 77.2789 12.7582C76.725 12.7582 76.2833 12.5793 75.9531 12.2197C75.6244 11.861 75.4601 11.4085 75.4601 10.8629C75.4601 10.2924 75.6292 9.82424 75.9691 9.46082C76.309 9.09739 76.7659 8.91528 77.3422 8.91528C77.8962 8.91528 78.3427 9.09426 78.6793 9.453C79 9.80158 79.1611 10.2518 79.1611 10.802ZM78.2906 10.8286C78.2906 10.4886 78.2152 10.197 78.0653 9.95398C77.8881 9.66011 77.638 9.51318 77.311 9.51318C76.9743 9.51318 76.7178 9.66011 76.5406 9.95398C76.3899 10.197 76.3154 10.4933 76.3154 10.8434C76.3154 11.1834 76.3907 11.4749 76.5406 11.718C76.7226 12.0118 76.9759 12.1588 77.303 12.1588C77.6236 12.1588 77.8761 12.0095 78.0573 11.7102C78.212 11.4624 78.2906 11.1685 78.2906 10.8286Z" fill="#010A03"/>
<path d="M83.678 12.6748H82.8387V10.5645C82.8387 9.91427 82.5854 9.58914 82.0764 9.58914C81.8271 9.58914 81.6259 9.67824 81.4704 9.85722C81.3149 10.0362 81.2371 10.2472 81.2371 10.4887V12.674H80.3962V10.0432C80.3962 9.71966 80.3866 9.36874 80.3666 8.9889H81.1041L81.1433 9.56491H81.1666C81.2652 9.38593 81.4111 9.23822 81.6018 9.1202C81.8303 8.98265 82.0844 8.91309 82.3642 8.91309C82.7161 8.91309 83.0095 9.02407 83.2427 9.24681C83.5337 9.51958 83.678 9.92678 83.678 10.4676V12.6748Z" fill="#010A03"/>
<path d="M89.3318 9.60384H88.4067V11.3936C88.4067 11.8485 88.5711 12.0759 88.8965 12.0759C89.0472 12.0759 89.1723 12.0634 89.2709 12.0376L89.2925 12.659C89.1266 12.7199 88.9086 12.7504 88.64 12.7504C88.3081 12.7504 88.05 12.6519 87.8633 12.455C87.6757 12.258 87.5827 11.9267 87.5827 11.4616V9.60384H87.0304V8.99031H87.5827V8.31504L88.4059 8.07275V8.98953H89.331V9.60384H89.3318Z" fill="#010A03"/>
<path d="M93.7791 12.6746H92.9382V10.58C92.9382 9.91961 92.6849 9.58901 92.1775 9.58901C91.7879 9.58901 91.5218 9.78049 91.3759 10.1635C91.351 10.244 91.3366 10.3424 91.3366 10.4581V12.6738H90.4973V7.2998H91.3366V9.52023H91.3526C91.6172 9.11616 91.9963 8.91452 92.4877 8.91452C92.8356 8.91452 93.1234 9.0255 93.3518 9.24825C93.6364 9.5257 93.7791 9.93837 93.7791 10.4839V12.6746Z" fill="#010A03"/>
<path d="M98.3666 10.6581C98.3666 10.8051 98.3554 10.9285 98.3353 11.0294H95.8159C95.8271 11.3936 95.9474 11.671 96.1806 11.8633C96.3939 12.0352 96.6688 12.1212 97.0055 12.1212C97.3782 12.1212 97.7181 12.0634 98.0243 11.9469L98.1558 12.5159C97.7975 12.6675 97.3758 12.7433 96.8876 12.7433C96.3025 12.7433 95.8416 12.5753 95.5081 12.2392C95.173 11.9032 95.0071 11.4522 95.0071 10.8863C95.0071 10.3307 95.1618 9.86796 95.4736 9.49907C95.7991 9.10516 96.2391 8.9082 96.7947 8.9082C97.3381 8.9082 97.751 9.10516 98.0299 9.49907C98.2552 9.81169 98.3666 10.1986 98.3666 10.6581ZM97.565 10.4463C97.5714 10.2033 97.5161 9.9938 97.4023 9.81716C97.2564 9.58973 97.0343 9.47562 96.7337 9.47562C96.4596 9.47562 96.2359 9.5866 96.0652 9.80935C95.9257 9.98676 95.8432 10.1986 95.8159 10.4463H97.565Z" fill="#010A03"/>
<path d="M45.2233 28.1213H43.4029L42.4057 25.0661H38.9395L37.9896 28.1213H36.2173L39.6514 17.7202H41.7724L45.2233 28.1213ZM42.1051 23.7844L41.2033 21.0684C41.1079 20.791 40.9291 20.1376 40.6654 19.1091H40.6333C40.5283 19.5514 40.3592 20.2048 40.1267 21.0684L39.2409 23.7844H42.1051Z" fill="#010A03"/>
<path d="M54.0546 24.2792C54.0546 25.5547 53.7011 26.563 52.9941 27.3031C52.3608 27.962 51.5744 28.291 50.6358 28.291C49.6225 28.291 48.8947 27.9362 48.4514 27.2265H48.4193V31.1773H46.7103V23.0905C46.7103 22.2886 46.6887 21.4656 46.647 20.6215H48.15L48.2454 21.8103H48.2774C48.8474 20.9146 49.7123 20.4675 50.873 20.4675C51.7805 20.4675 52.538 20.8169 53.144 21.5164C53.7516 22.2167 54.0546 23.1374 54.0546 24.2792ZM52.3135 24.3402C52.3135 23.6102 52.1452 23.0084 51.8069 22.5348C51.4374 22.0408 50.9412 21.7938 50.3191 21.7938C49.8975 21.7938 49.5143 21.9314 49.172 22.2026C48.8289 22.4762 48.6045 22.8333 48.4995 23.2757C48.4466 23.482 48.4201 23.6508 48.4201 23.7837V25.0342C48.4201 25.5797 48.5917 26.0401 48.9348 26.416C49.2778 26.792 49.7235 26.9795 50.2718 26.9795C50.9155 26.9795 51.4165 26.7372 51.7748 26.2542C52.134 25.7704 52.3135 25.1327 52.3135 24.3402Z" fill="#010A03"/>
<path d="M62.9019 24.2792C62.9019 25.5547 62.5484 26.563 61.8406 27.3031C61.2082 27.962 60.4218 28.291 59.4831 28.291C58.4699 28.291 57.742 27.9362 57.2995 27.2265H57.2675V31.1773H55.5584V23.0905C55.5584 22.2886 55.5368 21.4656 55.4951 20.6215H56.9981L57.0935 21.8103H57.1256C57.6947 20.9146 58.5597 20.4675 59.7212 20.4675C60.6278 20.4675 61.3853 20.8169 61.9929 21.5164C62.5981 22.2167 62.9019 23.1374 62.9019 24.2792ZM61.1609 24.3402C61.1609 23.6102 60.9917 23.0084 60.6534 22.5348C60.2839 22.0408 59.7893 21.7938 59.1665 21.7938C58.744 21.7938 58.3617 21.9314 58.0186 22.2026C57.6755 22.4762 57.4518 22.8333 57.3468 23.2757C57.2947 23.482 57.2675 23.6508 57.2675 23.7837V25.0342C57.2675 25.5797 57.439 26.0401 57.7805 26.416C58.1236 26.7912 58.5693 26.9795 59.1192 26.9795C59.7629 26.9795 60.2639 26.7372 60.6222 26.2542C60.9813 25.7704 61.1609 25.1327 61.1609 24.3402Z" fill="#010A03"/>
<path d="M72.7937 25.2045C72.7937 26.0893 72.4787 26.8091 71.8462 27.3648C71.1512 27.9721 70.1837 28.2753 68.9404 28.2753C67.7925 28.2753 66.8723 28.0596 66.1757 27.6274L66.5717 26.2386C67.322 26.6809 68.1452 26.9029 69.0422 26.9029C69.6859 26.9029 70.1869 26.7606 70.5468 26.4777C70.9051 26.1948 71.0839 25.8149 71.0839 25.3413C71.0839 24.9193 70.9364 24.5637 70.6406 24.2753C70.3464 23.9869 69.855 23.7188 69.1689 23.471C67.3011 22.7919 66.368 21.7969 66.368 20.4886C66.368 19.6335 66.6951 18.9325 67.35 18.387C68.0025 17.8406 68.8731 17.5679 69.9616 17.5679C70.9324 17.5679 71.7388 17.7328 72.3825 18.0618L71.9552 19.4202C71.354 19.1013 70.6743 18.9419 69.9135 18.9419C69.3123 18.9419 68.8426 19.0865 68.5059 19.3741C68.2214 19.6312 68.0787 19.9446 68.0787 20.3159C68.0787 20.727 68.2414 21.0669 68.5685 21.3342C68.853 21.5812 69.3701 21.8485 70.1204 22.1369C71.0382 22.4972 71.7123 22.9185 72.146 23.4015C72.5781 23.8829 72.7937 24.4855 72.7937 25.2045Z" fill="#010A03"/>
<path d="M78.4442 21.8719H76.5604V25.5132C76.5604 26.4394 76.8923 26.9021 77.5576 26.9021C77.8631 26.9021 78.1164 26.8763 78.3168 26.8247L78.3641 28.09C78.0274 28.2128 77.5841 28.2745 77.035 28.2745C76.36 28.2745 75.8326 28.0736 75.4518 27.6727C75.0727 27.271 74.8819 26.5973 74.8819 25.6508V21.8703H73.7596V20.6198H74.8819V19.2466L76.5604 18.7527V20.6198H78.4442V21.8719Z" fill="#010A03"/>
<path d="M86.9437 24.3097C86.9437 25.4625 86.6054 26.4089 85.9305 27.1491C85.2227 27.9111 84.2832 28.2909 83.112 28.2909C81.9834 28.2909 81.0848 27.926 80.4146 27.196C79.7445 26.466 79.4094 25.5445 79.4094 24.4339C79.4094 23.2717 79.7541 22.3198 80.4459 21.5796C81.1361 20.8387 82.0675 20.4683 83.2387 20.4683C84.3674 20.4683 85.2756 20.8333 85.9609 21.564C86.6167 22.2729 86.9437 23.1881 86.9437 24.3097ZM85.1706 24.3636C85.1706 23.6719 85.0191 23.0787 84.712 22.584C84.3537 21.9853 83.8415 21.6867 83.1778 21.6867C82.4908 21.6867 81.969 21.9861 81.6106 22.584C81.3036 23.0795 81.1521 23.6821 81.1521 24.3948C81.1521 25.0865 81.3036 25.6797 81.6106 26.1737C81.9802 26.7724 82.4964 27.0709 83.1625 27.0709C83.815 27.0709 84.3273 26.7661 84.6968 26.1581C85.0118 25.6539 85.1706 25.0545 85.1706 24.3636Z" fill="#010A03"/>
<path d="M92.4988 22.0869C92.3296 22.0565 92.1493 22.0408 91.9601 22.0408C91.3589 22.0408 90.8939 22.262 90.5669 22.7051C90.2823 23.0959 90.1396 23.5899 90.1396 24.1862V28.1214H88.4314L88.4474 22.9834C88.4474 22.119 88.4258 21.3319 88.3833 20.6223H89.8719L89.9344 22.0572H89.9817C90.1621 21.5641 90.4466 21.167 90.8362 20.8693C91.217 20.6012 91.6282 20.4675 92.0715 20.4675C92.2294 20.4675 92.3721 20.4785 92.4988 20.498V22.0869Z" fill="#010A03"/>
<path d="M100.142 24.0165C100.142 24.3151 100.122 24.5667 100.08 24.7723H94.9525C94.9726 25.5132 95.2203 26.0799 95.6964 26.4706C96.1285 26.82 96.6872 26.9951 97.3734 26.9951C98.1325 26.9951 98.8251 26.8771 99.4479 26.6402L99.7157 27.797C98.9878 28.1065 98.1285 28.2604 97.1369 28.2604C95.9441 28.2604 95.0078 27.9181 94.3265 27.2342C93.6467 26.5504 93.306 25.632 93.306 24.48C93.306 23.3491 93.6227 22.4073 94.2567 21.6562C94.9205 20.8543 95.8175 20.4534 96.9461 20.4534C98.0547 20.4534 98.894 20.8543 99.464 21.6562C99.9153 22.2932 100.142 23.081 100.142 24.0165ZM98.5125 23.5843C98.5237 23.0904 98.4122 22.6636 98.1806 22.3033C97.8848 21.8399 97.4303 21.6085 96.8187 21.6085C96.2599 21.6085 95.8054 21.8344 95.4583 22.2877C95.1738 22.648 95.0046 23.0802 94.9525 23.5835H98.5125V23.5843Z" fill="#010A03"/>
</svg>
