<svg width="122" height="39" viewBox="0 0 122 39" fill="none" xmlns="http://www.w3.org/2000/svg">
<rect x="1" y="1" width="119.341" height="36.4771" rx="11" fill="#F2F7F4"/>
<rect x="1" y="1" width="119.341" height="36.4771" rx="11" stroke="#010A03" stroke-width="2"/>
<path d="M14.8007 9.49774C14.5652 9.73807 14.429 10.1122 14.429 10.5968V27.8811C14.429 28.3657 14.5652 28.7399 14.8007 28.9802L14.8588 29.033L24.7927 19.3513V19.1227L14.8588 9.44108L14.8007 9.49774Z" fill="#010A03"/>
<path d="M29.3026 22.5801L25.995 19.3512V19.1226L29.3066 15.8938L29.3808 15.9358L33.3026 18.1115C34.4219 18.7289 34.4219 19.745 33.3026 20.3663L29.3808 22.5381L29.3026 22.5801Z" fill="#010A03"/>
<path d="M28.7796 23.1393L25.3939 19.8382L15.4019 29.5814C15.7736 29.9624 16.3798 30.0083 17.0692 29.6273L28.7796 23.1393Z" fill="#010A03"/>
<path d="M28.7796 15.3346L17.0692 8.84664C16.3798 8.46954 15.7736 8.51545 15.4019 8.89646L25.3939 18.6357L28.7796 15.3346Z" fill="#010A03"/>
<path d="M43.8138 10.3687C43.8138 11.0213 43.6134 11.544 43.2186 11.9338C42.7647 12.3959 42.1735 12.6284 41.449 12.6284C40.7566 12.6284 40.1655 12.392 39.6805 11.926C39.1945 11.4532 38.952 10.8728 38.952 10.1782C38.952 9.48362 39.1945 8.90331 39.6805 8.43437C40.1655 7.96445 40.7566 7.72803 41.449 7.72803C41.7937 7.72803 42.1224 7.79739 42.436 7.92635C42.7486 8.05628 43.0031 8.23214 43.1875 8.44902L42.7687 8.8613C42.447 8.49103 42.0091 8.30834 41.449 8.30834C40.944 8.30834 40.5061 8.48028 40.1344 8.8271C39.7667 9.1749 39.5823 9.62528 39.5823 10.1782C39.5823 10.7312 39.7667 11.1855 40.1344 11.5333C40.5061 11.8762 40.944 12.052 41.449 12.052C41.9851 12.052 42.436 11.8762 42.7917 11.5294C43.0262 11.2998 43.1595 10.9832 43.1945 10.5788H41.449V10.0141H43.7777C43.8057 10.1362 43.8138 10.2544 43.8138 10.3687Z" fill="#010A03" stroke="#010A03" stroke-width="0.0961926" stroke-miterlimit="10"/>
<path d="M47.508 8.41088H45.3207V9.89585H47.2926V10.4605H45.3207V11.9455H47.508V12.5209H44.7014V7.83545H47.508V8.41088Z" fill="#010A03" stroke="#010A03" stroke-width="0.0961926" stroke-miterlimit="10"/>
<path d="M50.1153 12.5209H49.4961V8.41088H48.1544V7.83545H51.458V8.41088H50.1153V12.5209Z" fill="#010A03" stroke="#010A03" stroke-width="0.0961926" stroke-miterlimit="10"/>
<path d="M53.8488 12.5209V7.83545H54.467V12.5209H53.8488Z" fill="#010A03" stroke="#010A03" stroke-width="0.0961926" stroke-miterlimit="10"/>
<path d="M57.2075 12.5209H56.5933V8.41088H55.2466V7.83545H58.5542V8.41088H57.2075V12.5209Z" fill="#010A03" stroke="#010A03" stroke-width="0.0961926" stroke-miterlimit="10"/>
<path d="M64.8087 11.9182C64.3348 12.392 63.7476 12.6284 63.0472 12.6284C62.3428 12.6284 61.7556 12.392 61.2817 11.9182C60.8087 11.4453 60.5732 10.865 60.5732 10.1782C60.5732 9.49143 60.8087 8.91112 61.2817 8.43827C61.7556 7.96445 62.3428 7.72803 63.0472 7.72803C63.7436 7.72803 64.3308 7.96445 64.8047 8.44218C65.2817 8.91894 65.5171 9.49534 65.5171 10.1782C65.5171 10.865 65.2817 11.4453 64.8087 11.9182ZM61.7396 11.5255C62.0963 11.8762 62.5302 12.052 63.0472 12.052C63.5602 12.052 63.9981 11.8762 64.3508 11.5255C64.7065 11.1747 64.8869 10.7244 64.8869 10.1782C64.8869 9.63212 64.7065 9.18174 64.3508 8.83101C63.9981 8.48028 63.5602 8.30443 63.0472 8.30443C62.5302 8.30443 62.0963 8.48028 61.7396 8.83101C61.3839 9.18174 61.2035 9.63212 61.2035 10.1782C61.2035 10.7244 61.3839 11.1747 61.7396 11.5255Z" fill="#010A03" stroke="#010A03" stroke-width="0.0961926" stroke-miterlimit="10"/>
<path d="M66.3859 12.5209V7.83545H67.1374L69.474 11.4795H69.5011L69.474 10.5787V7.83545H70.0923V12.5209H69.447L67.0001 8.69712H66.973L67.0001 9.60179V12.5209H66.3859Z" fill="#010A03" stroke="#010A03" stroke-width="0.0961926" stroke-miterlimit="10"/>
<path d="M60.6714 21.1162C58.7886 21.1162 57.2505 22.5133 57.2505 24.4408C57.2505 26.3527 58.7886 27.7644 60.6714 27.7644C62.5582 27.7644 64.0962 26.3527 64.0962 24.4408C64.0962 22.5133 62.5582 21.1162 60.6714 21.1162ZM60.6714 26.4553C59.6383 26.4553 58.7495 25.6239 58.7495 24.4408C58.7495 23.2421 59.6383 22.4254 60.6714 22.4254C61.7045 22.4254 62.5972 23.2421 62.5972 24.4408C62.5972 25.6239 61.7045 26.4553 60.6714 26.4553ZM53.2074 21.1162C51.3207 21.1162 49.7866 22.5133 49.7866 24.4408C49.7866 26.3527 51.3207 27.7644 53.2074 27.7644C55.0932 27.7644 56.6283 26.3527 56.6283 24.4408C56.6283 22.5133 55.0932 21.1162 53.2074 21.1162ZM53.2074 26.4553C52.1734 26.4553 51.2816 25.6239 51.2816 24.4408C51.2816 23.2421 52.1734 22.4254 53.2074 22.4254C54.2405 22.4254 55.1293 23.2421 55.1293 24.4408C55.1293 25.6239 54.2405 26.4553 53.2074 26.4553ZM44.3257 22.1352V23.5479H47.7856C47.6844 24.3373 47.4138 24.9176 46.999 25.322C46.494 25.8105 45.7074 26.3527 44.3257 26.3527C42.1964 26.3527 40.5291 24.6772 40.5291 22.6012C40.5291 20.5252 42.1964 18.8497 44.3257 18.8497C45.477 18.8497 46.3146 19.2884 46.9329 19.8569L47.9539 18.8614C47.0892 18.0564 45.9389 17.438 44.3257 17.438C41.4058 17.438 38.9519 19.7544 38.9519 22.6012C38.9519 25.4481 41.4058 27.7644 44.3257 27.7644C45.9038 27.7644 47.0892 27.2603 48.0211 26.3146C48.976 25.3836 49.2736 24.0745 49.2736 23.0174C49.2736 22.6891 49.2455 22.3873 49.1954 22.1352H44.3257ZM80.6444 23.2304C80.3628 22.4869 79.4941 21.1162 77.7245 21.1162C75.971 21.1162 74.5111 22.4635 74.5111 24.4408C74.5111 26.3029 75.956 27.7644 77.8929 27.7644C79.459 27.7644 80.3628 26.8334 80.7346 26.2912L79.5722 25.536C79.1845 26.0889 78.6564 26.4553 77.8929 26.4553C77.1344 26.4553 76.5903 26.1163 76.2416 25.4481L80.8017 23.6084L80.6444 23.2304ZM75.9951 24.3373C75.956 23.0555 77.0161 22.399 77.7756 22.399C78.3708 22.399 78.8758 22.6891 79.0442 23.1043L75.9951 24.3373ZM72.2886 27.5622H73.7877V17.7926H72.2886V27.5622ZM69.8337 21.8568H69.7836C69.447 21.4679 68.8047 21.1162 67.991 21.1162C66.2836 21.1162 64.7225 22.5778 64.7225 24.4516C64.7225 26.3146 66.2836 27.7644 67.991 27.7644C68.8047 27.7644 69.447 27.4098 69.7836 27.0092H69.8337V27.486C69.8337 28.757 69.1373 29.4399 68.0141 29.4399C67.0983 29.4399 66.5301 28.7951 66.2957 28.2529L64.992 28.7834C65.3678 29.6646 66.3628 30.749 68.0141 30.749C69.7716 30.749 71.2546 29.7408 71.2546 27.2877V21.3185H69.8337V21.8568ZM68.1193 26.4553C67.0862 26.4553 66.2215 25.6122 66.2215 24.4516C66.2215 23.2802 67.0862 22.4254 68.1193 22.4254C69.1373 22.4254 69.9399 23.2802 69.9399 24.4516C69.9399 25.6122 69.1373 26.4553 68.1193 26.4553ZM87.6624 17.7926H84.0772V27.5622H85.5722V23.8605H87.6624C89.3228 23.8605 90.951 22.6891 90.951 20.8261C90.951 18.964 89.3187 17.7926 87.6624 17.7926ZM87.7015 22.5016H85.5722V19.1516H87.7015C88.8177 19.1516 89.455 20.0553 89.455 20.8261C89.455 21.5822 88.8177 22.5016 87.7015 22.5016ZM96.943 21.0977C95.8628 21.0977 94.7396 21.5627 94.2777 22.5934L95.6043 23.1356C95.8899 22.5934 96.415 22.4175 96.9701 22.4175C97.7456 22.4175 98.5322 22.8718 98.5442 23.6739V23.7765C98.2737 23.6241 97.6945 23.3984 96.9821 23.3984C95.5532 23.3984 94.0973 24.1653 94.0973 25.5966C94.0973 26.9057 95.2677 27.7488 96.5833 27.7488C97.5893 27.7488 98.1444 27.3062 98.4931 26.7914H98.5442V27.5466H99.9881V23.799C99.9881 22.0668 98.6615 21.0977 96.943 21.0977ZM96.7627 26.4514C96.2737 26.4514 95.5923 26.215 95.5923 25.6239C95.5923 24.8677 96.442 24.5776 97.1775 24.5776C97.8358 24.5776 98.1444 24.7192 98.5442 24.9058C98.427 25.8105 97.6284 26.4514 96.7627 26.4514ZM105.249 21.3116L103.53 25.5467H103.479L101.703 21.3116H100.09L102.76 27.23L101.237 30.5233H102.799L106.912 21.3116H105.249ZM91.7727 27.5622H93.2717V17.7926H91.7727V27.5622Z" fill="#010A03"/>
</svg>
