<svg width="124" height="41" viewBox="0 0 124 41" fill="none" xmlns="http://www.w3.org/2000/svg">
<rect x="1" y="1" width="121.341" height="38.4771" rx="12" fill="#F2F7F4"/>
<rect x="1" y="1" width="121.341" height="38.4771" rx="12" stroke="#CEE0D0" stroke-width="2"/>
<path d="M15.8007 10.4977C15.5652 10.7381 15.429 11.1122 15.429 11.5968V28.8811C15.429 29.3657 15.5652 29.7399 15.8007 29.9802L15.8588 30.033L25.7927 20.3513V20.1227L15.8588 10.4411L15.8007 10.4977Z" fill="#010A03"/>
<path d="M30.3026 23.5801L26.995 20.3512V20.1226L30.3066 16.8938L30.3808 16.9358L34.3026 19.1115C35.4219 19.7289 35.4219 20.745 34.3026 21.3663L30.3808 23.5381L30.3026 23.5801Z" fill="#010A03"/>
<path d="M29.7796 24.1393L26.3939 20.8382L16.4019 30.5814C16.7736 30.9624 17.3798 31.0083 18.0692 30.6273L29.7796 24.1393Z" fill="#010A03"/>
<path d="M29.7796 16.3346L18.0692 9.84664C17.3798 9.46954 16.7736 9.51545 16.4019 9.89646L26.3939 19.6357L29.7796 16.3346Z" fill="#010A03"/>
<path d="M44.8138 11.3687C44.8138 12.0213 44.6134 12.544 44.2186 12.9338C43.7647 13.3959 43.1735 13.6284 42.449 13.6284C41.7566 13.6284 41.1655 13.392 40.6805 12.926C40.1945 12.4532 39.952 11.8728 39.952 11.1782C39.952 10.4836 40.1945 9.90331 40.6805 9.43437C41.1655 8.96445 41.7566 8.72803 42.449 8.72803C42.7937 8.72803 43.1224 8.79739 43.436 8.92635C43.7486 9.05628 44.0031 9.23214 44.1875 9.44902L43.7687 9.8613C43.447 9.49103 43.0091 9.30834 42.449 9.30834C41.944 9.30834 41.5061 9.48028 41.1344 9.8271C40.7667 10.1749 40.5823 10.6253 40.5823 11.1782C40.5823 11.7312 40.7667 12.1855 41.1344 12.5333C41.5061 12.8762 41.944 13.052 42.449 13.052C42.9851 13.052 43.436 12.8762 43.7917 12.5294C44.0262 12.2998 44.1595 11.9832 44.1945 11.5788H42.449V11.0141H44.7777C44.8057 11.1362 44.8138 11.2544 44.8138 11.3687Z" fill="#010A03" stroke="#010A03" stroke-width="0.0961926" stroke-miterlimit="10"/>
<path d="M48.508 9.41088H46.3207V10.8958H48.2926V11.4605H46.3207V12.9455H48.508V13.5209H45.7014V8.83545H48.508V9.41088Z" fill="#010A03" stroke="#010A03" stroke-width="0.0961926" stroke-miterlimit="10"/>
<path d="M51.1153 13.5209H50.4961V9.41088H49.1544V8.83545H52.458V9.41088H51.1153V13.5209Z" fill="#010A03" stroke="#010A03" stroke-width="0.0961926" stroke-miterlimit="10"/>
<path d="M54.8488 13.5209V8.83545H55.467V13.5209H54.8488Z" fill="#010A03" stroke="#010A03" stroke-width="0.0961926" stroke-miterlimit="10"/>
<path d="M58.2075 13.5209H57.5933V9.41088H56.2466V8.83545H59.5542V9.41088H58.2075V13.5209Z" fill="#010A03" stroke="#010A03" stroke-width="0.0961926" stroke-miterlimit="10"/>
<path d="M65.8087 12.9182C65.3348 13.392 64.7476 13.6284 64.0472 13.6284C63.3428 13.6284 62.7556 13.392 62.2817 12.9182C61.8087 12.4453 61.5732 11.865 61.5732 11.1782C61.5732 10.4914 61.8087 9.91112 62.2817 9.43827C62.7556 8.96445 63.3428 8.72803 64.0472 8.72803C64.7436 8.72803 65.3308 8.96445 65.8047 9.44218C66.2817 9.91894 66.5171 10.4953 66.5171 11.1782C66.5171 11.865 66.2817 12.4453 65.8087 12.9182ZM62.7396 12.5255C63.0963 12.8762 63.5302 13.052 64.0472 13.052C64.5602 13.052 64.9981 12.8762 65.3508 12.5255C65.7065 12.1747 65.8869 11.7244 65.8869 11.1782C65.8869 10.6321 65.7065 10.1817 65.3508 9.83101C64.9981 9.48028 64.5602 9.30443 64.0472 9.30443C63.5302 9.30443 63.0963 9.48028 62.7396 9.83101C62.3839 10.1817 62.2035 10.6321 62.2035 11.1782C62.2035 11.7244 62.3839 12.1747 62.7396 12.5255Z" fill="#010A03" stroke="#010A03" stroke-width="0.0961926" stroke-miterlimit="10"/>
<path d="M67.3859 13.5209V8.83545H68.1374L70.474 12.4795H70.5011L70.474 11.5787V8.83545H71.0923V13.5209H70.447L68.0001 9.69712H67.973L68.0001 10.6018V13.5209H67.3859Z" fill="#010A03" stroke="#010A03" stroke-width="0.0961926" stroke-miterlimit="10"/>
<path d="M61.6714 22.1162C59.7886 22.1162 58.2505 23.5133 58.2505 25.4408C58.2505 27.3527 59.7886 28.7644 61.6714 28.7644C63.5582 28.7644 65.0962 27.3527 65.0962 25.4408C65.0962 23.5133 63.5582 22.1162 61.6714 22.1162ZM61.6714 27.4553C60.6383 27.4553 59.7495 26.6239 59.7495 25.4408C59.7495 24.2421 60.6383 23.4254 61.6714 23.4254C62.7045 23.4254 63.5972 24.2421 63.5972 25.4408C63.5972 26.6239 62.7045 27.4553 61.6714 27.4553ZM54.2074 22.1162C52.3207 22.1162 50.7866 23.5133 50.7866 25.4408C50.7866 27.3527 52.3207 28.7644 54.2074 28.7644C56.0932 28.7644 57.6283 27.3527 57.6283 25.4408C57.6283 23.5133 56.0932 22.1162 54.2074 22.1162ZM54.2074 27.4553C53.1734 27.4553 52.2816 26.6239 52.2816 25.4408C52.2816 24.2421 53.1734 23.4254 54.2074 23.4254C55.2405 23.4254 56.1293 24.2421 56.1293 25.4408C56.1293 26.6239 55.2405 27.4553 54.2074 27.4553ZM45.3257 23.1352V24.5479H48.7856C48.6844 25.3373 48.4138 25.9176 47.999 26.322C47.494 26.8105 46.7074 27.3527 45.3257 27.3527C43.1964 27.3527 41.5291 25.6772 41.5291 23.6012C41.5291 21.5252 43.1964 19.8497 45.3257 19.8497C46.477 19.8497 47.3146 20.2884 47.9329 20.8569L48.9539 19.8614C48.0892 19.0564 46.9389 18.438 45.3257 18.438C42.4058 18.438 39.9519 20.7544 39.9519 23.6012C39.9519 26.4481 42.4058 28.7644 45.3257 28.7644C46.9038 28.7644 48.0892 28.2603 49.0211 27.3146C49.976 26.3836 50.2736 25.0745 50.2736 24.0174C50.2736 23.6891 50.2455 23.3873 50.1954 23.1352H45.3257ZM81.6444 24.2304C81.3628 23.4869 80.4941 22.1162 78.7245 22.1162C76.971 22.1162 75.5111 23.4635 75.5111 25.4408C75.5111 27.3029 76.956 28.7644 78.8929 28.7644C80.459 28.7644 81.3628 27.8334 81.7346 27.2912L80.5722 26.536C80.1845 27.0889 79.6564 27.4553 78.8929 27.4553C78.1344 27.4553 77.5903 27.1163 77.2416 26.4481L81.8017 24.6084L81.6444 24.2304ZM76.9951 25.3373C76.956 24.0555 78.0161 23.399 78.7756 23.399C79.3708 23.399 79.8758 23.6891 80.0442 24.1043L76.9951 25.3373ZM73.2886 28.5622H74.7877V18.7926H73.2886V28.5622ZM70.8337 22.8568H70.7836C70.447 22.4679 69.8047 22.1162 68.991 22.1162C67.2836 22.1162 65.7225 23.5778 65.7225 25.4516C65.7225 27.3146 67.2836 28.7644 68.991 28.7644C69.8047 28.7644 70.447 28.4098 70.7836 28.0092H70.8337V28.486C70.8337 29.757 70.1373 30.4399 69.0141 30.4399C68.0983 30.4399 67.5301 29.7951 67.2957 29.2529L65.992 29.7834C66.3678 30.6646 67.3628 31.749 69.0141 31.749C70.7716 31.749 72.2546 30.7408 72.2546 28.2877V22.3185H70.8337V22.8568ZM69.1193 27.4553C68.0862 27.4553 67.2215 26.6122 67.2215 25.4516C67.2215 24.2802 68.0862 23.4254 69.1193 23.4254C70.1373 23.4254 70.9399 24.2802 70.9399 25.4516C70.9399 26.6122 70.1373 27.4553 69.1193 27.4553ZM88.6624 18.7926H85.0772V28.5622H86.5722V24.8605H88.6624C90.3228 24.8605 91.951 23.6891 91.951 21.8261C91.951 19.964 90.3187 18.7926 88.6624 18.7926ZM88.7015 23.5016H86.5722V20.1516H88.7015C89.8177 20.1516 90.455 21.0553 90.455 21.8261C90.455 22.5822 89.8177 23.5016 88.7015 23.5016ZM97.943 22.0977C96.8628 22.0977 95.7396 22.5627 95.2777 23.5934L96.6043 24.1356C96.8899 23.5934 97.415 23.4175 97.9701 23.4175C98.7456 23.4175 99.5322 23.8718 99.5442 24.6739V24.7765C99.2737 24.6241 98.6945 24.3984 97.9821 24.3984C96.5532 24.3984 95.0973 25.1653 95.0973 26.5966C95.0973 27.9057 96.2677 28.7488 97.5833 28.7488C98.5893 28.7488 99.1444 28.3062 99.4931 27.7914H99.5442V28.5466H100.988V24.799C100.988 23.0668 99.6615 22.0977 97.943 22.0977ZM97.7627 27.4514C97.2737 27.4514 96.5923 27.215 96.5923 26.6239C96.5923 25.8677 97.442 25.5776 98.1775 25.5776C98.8358 25.5776 99.1444 25.7192 99.5442 25.9058C99.427 26.8105 98.6284 27.4514 97.7627 27.4514ZM106.249 22.3116L104.53 26.5467H104.479L102.703 22.3116H101.09L103.76 28.23L102.237 31.5233H103.799L107.912 22.3116H106.249ZM92.7727 28.5622H94.2717V18.7926H92.7727V28.5622Z" fill="#010A03"/>
</svg>
