<svg width="21" height="21" viewBox="0 0 21 21" fill="none" xmlns="http://www.w3.org/2000/svg">
<g clip-path="url(#clip0_33_2957)">
<path fill-rule="evenodd" clip-rule="evenodd" d="M11.7813 1.68762C12.2234 1.68762 12.6473 1.86322 12.9598 2.17578C13.2724 2.48834 13.448 2.91226 13.448 3.35429C13.4484 3.93022 13.6474 4.48838 14.0115 4.93468C14.3755 5.38098 14.8822 5.68811 15.4463 5.80429C15.8795 5.89225 16.26 6.1487 16.5041 6.51721C16.7482 6.88571 16.836 7.3361 16.748 7.76929C16.66 8.20248 16.4036 8.58298 16.0351 8.82709C15.6666 9.0712 15.2162 9.15892 14.783 9.07096C14.3216 8.97707 13.8733 8.82736 13.448 8.62512V13.3543C13.448 14.2895 13.1856 15.2059 12.6908 15.9995C12.196 16.7931 11.4886 17.432 10.6489 17.8436C9.80915 18.2553 8.87081 18.4232 7.94044 18.3282C7.01008 18.2333 6.12498 17.8794 5.38571 17.3066C4.64643 16.7338 4.08261 15.9652 3.75829 15.088C3.43397 14.2109 3.36216 13.2603 3.551 12.3444C3.73985 11.4285 4.18178 10.5839 4.82661 9.90653C5.47143 9.22919 6.29329 8.74626 7.19883 8.51262C7.62418 8.41004 8.0728 8.47884 8.44786 8.70416C8.82293 8.92948 9.09434 9.29326 9.20352 9.71695C9.3127 10.1407 9.25089 10.5903 9.03142 10.9688C8.81196 11.3473 8.45245 11.6244 8.0305 11.7401C7.63981 11.8438 7.30005 12.0858 7.07435 12.4211C6.84864 12.7564 6.75236 13.1623 6.80339 13.5633C6.85441 13.9642 7.04928 14.333 7.35177 14.6012C7.65426 14.8693 8.0438 15.0184 8.448 15.021C8.89003 15.021 9.31395 14.8454 9.62651 14.5328C9.93907 14.2202 10.1147 13.7963 10.1147 13.3543V3.35429C10.1147 2.91226 10.2903 2.48834 10.6028 2.17578C10.9154 1.86322 11.3393 1.68762 11.7813 1.68762Z" fill="#F2FDF9"/>
</g>
<defs>
<clipPath id="clip0_33_2957">
<rect width="20" height="20" fill="white" transform="translate(0.114655 0.0209961)"/>
</clipPath>
</defs>
</svg>
