<svg width="12" height="12" viewBox="0 0 12 12" fill="none" xmlns="http://www.w3.org/2000/svg">
<path fill-rule="evenodd" clip-rule="evenodd" d="M0.75 0.84375C0.75 0.619974 0.805559 0.405362 0.904455 0.247129C1.00335 0.0888947 1.13748 0 1.27734 0H11.4727C11.6125 0 11.7466 0.0888947 11.8455 0.247129C11.9444 0.405362 12 0.619974 12 0.84375C12 1.06753 11.9444 1.28214 11.8455 1.44037C11.7466 1.59861 11.6125 1.6875 11.4727 1.6875H1.27734C1.13748 1.6875 1.00335 1.59861 0.904455 1.44037C0.805559 1.28214 0.75 1.06753 0.75 0.84375ZM0.75 5.625C0.75 5.40122 0.805559 5.18661 0.904455 5.02838C1.00335 4.87014 1.13748 4.78125 1.27734 4.78125H11.4727C11.6125 4.78125 11.7466 4.87014 11.8455 5.02838C11.9444 5.18661 12 5.40122 12 5.625C12 5.84878 11.9444 6.06339 11.8455 6.22162C11.7466 6.37985 11.6125 6.46875 11.4727 6.46875H1.27734C1.13748 6.46875 1.00335 6.37985 0.904455 6.22162C0.805559 6.06339 0.75 5.84878 0.75 5.625ZM1.27734 9.5625C1.13748 9.5625 1.00335 9.65139 0.904455 9.80963C0.805559 9.96786 0.75 10.1825 0.75 10.4062C0.75 10.63 0.805559 10.8446 0.904455 11.0029C1.00335 11.1611 1.13748 11.25 1.27734 11.25H11.4727C11.6125 11.25 11.7466 11.1611 11.8455 11.0029C11.9444 10.8446 12 10.63 12 10.4062C12 10.1825 11.9444 9.96786 11.8455 9.80963C11.7466 9.65139 11.6125 9.5625 11.4727 9.5625H1.27734Z" fill="#F2F7F4"/>
</svg>
