<svg width="35" height="35" viewBox="0 0 35 35" fill="none" xmlns="http://www.w3.org/2000/svg">
<rect x="2.09024" y="2.09043" width="30.6576" height="30.6576" rx="10" fill="#B9EBC1"/>
<path d="M24.2126 12.7169V20.5555C24.2121 20.6299 24.1958 20.7034 24.1648 20.771C24.1337 20.8386 24.0885 20.8987 24.0323 20.9475C23.0342 21.8117 22.0798 22.1232 21.1699 22.1232C19.9347 22.1232 18.7811 21.5523 17.7078 21.0226C15.9736 20.1636 14.4659 19.4196 12.716 20.8018V23.691C12.716 23.8296 12.6609 23.9625 12.5629 24.0605C12.4649 24.1585 12.332 24.2135 12.1934 24.2135C12.0548 24.2135 11.9219 24.1585 11.8239 24.0605C11.7259 23.9625 11.6708 23.8296 11.6708 23.691V12.7169C11.6713 12.6425 11.6877 12.569 11.7189 12.5014C11.7501 12.4338 11.7954 12.3737 11.8518 12.325C14.2033 10.2883 16.3139 11.3315 18.1742 12.2519C19.9667 13.1389 21.5207 13.9058 23.3477 12.325C23.4232 12.2596 23.5159 12.2171 23.6148 12.2027C23.7137 12.1884 23.8147 12.2026 23.9057 12.2439C23.9967 12.2851 24.074 12.3516 24.1284 12.4355C24.1828 12.5193 24.212 12.617 24.2126 12.7169Z" fill="#10691F"/>
</svg>
