<svg width="24" height="25" viewBox="0 0 24 25" fill="none" xmlns="http://www.w3.org/2000/svg">
<g clip-path="url(#clip0_1_1481)">
<path d="M10.32 4.71638C10.8451 4.46733 11.4189 4.33813 12 4.33813C12.5811 4.33813 13.155 4.46733 13.68 4.71638L23.428 9.33438C23.5978 9.41475 23.7416 9.54134 23.8428 9.69962C23.9439 9.85791 23.9985 10.0415 24.0002 10.2294C24.0018 10.4172 23.9506 10.6018 23.8522 10.7618C23.7538 10.9219 23.6124 11.051 23.444 11.1344L13.744 15.9464C13.2021 16.2156 12.6051 16.3557 12 16.3557C11.3949 16.3557 10.798 16.2156 10.256 15.9464L2.00001 11.8504V16.3384C2.00001 16.6036 1.89466 16.858 1.70712 17.0455C1.51958 17.233 1.26523 17.3384 1.00001 17.3384C0.734796 17.3384 0.480442 17.233 0.292906 17.0455C0.105369 16.858 1.23829e-05 16.6036 1.23829e-05 16.3384V10.2884C-0.00981739 10.0906 0.0392964 9.89435 0.141128 9.72451C0.24296 9.55468 0.392924 9.4189 0.572012 9.33438L10.32 4.71638ZM4.00001 15.0764V18.3384C4.00004 18.4699 4.02602 18.6002 4.07647 18.7217C4.12692 18.8432 4.20085 18.9535 4.29401 19.0464L4.29801 19.0524L4.34401 19.0944L4.46401 19.2064C4.56401 19.2997 4.70868 19.4244 4.89801 19.5804C5.27201 19.8864 5.81201 20.2904 6.48601 20.6964C7.82601 21.4984 9.75401 22.3384 12 22.3384C14.246 22.3384 16.176 21.4984 17.514 20.6964C18.2339 20.2642 18.9115 19.7654 19.538 19.2064L19.658 19.0944L19.69 19.0624L19.702 19.0504L19.704 19.0484L19.708 19.0464C19.8008 18.9533 19.8744 18.8429 19.9245 18.7214C19.9746 18.6 20.0002 18.4698 20 18.3384V15.0744L14.632 17.7384C13.814 18.1444 12.9132 18.3557 12 18.3557C11.0868 18.3557 10.186 18.1444 9.36801 17.7384L4.00001 15.0764Z" fill="#010A03" fill-opacity="0.85"/>
</g>
<defs>
<clipPath id="clip0_1_1481">
<rect width="24" height="24" fill="white" transform="translate(0 0.338379)"/>
</clipPath>
</defs>
</svg>
