<svg width="24" height="25" viewBox="0 0 24 25" fill="none" xmlns="http://www.w3.org/2000/svg">
<path d="M1.5 17.9634C1.5 18.6596 1.77656 19.3273 2.26884 19.8195C2.76113 20.3118 3.42881 20.5884 4.125 20.5884H19.875C20.5712 20.5884 21.2389 20.3118 21.7312 19.8195C22.2234 19.3273 22.5 18.6596 22.5 17.9634V10.7446H1.5V17.9634ZM4.59375 14.4009C4.59375 14.0279 4.74191 13.6702 5.00563 13.4065C5.26935 13.1428 5.62704 12.9946 6 12.9946H8.25C8.62296 12.9946 8.98065 13.1428 9.24437 13.4065C9.50809 13.6702 9.65625 14.0279 9.65625 14.4009V15.3384C9.65625 15.7113 9.50809 16.069 9.24437 16.3327C8.98065 16.5965 8.62296 16.7446 8.25 16.7446H6C5.62704 16.7446 5.26935 16.5965 5.00563 16.3327C4.74191 16.069 4.59375 15.7113 4.59375 15.3384V14.4009ZM19.875 4.08838H4.125C3.42881 4.08838 2.76113 4.36494 2.26884 4.85722C1.77656 5.34951 1.5 6.01719 1.5 6.71338V7.93213H22.5V6.71338C22.5 6.01719 22.2234 5.34951 21.7312 4.85722C21.2389 4.36494 20.5712 4.08838 19.875 4.08838Z" fill="#010A03" fill-opacity="0.85"/>
</svg>
