<svg width="21" height="21" viewBox="0 0 21 21" fill="none" xmlns="http://www.w3.org/2000/svg">
<path d="M17.9135 8.50526H16.1872C16.3276 9.01053 16.3977 9.51579 16.3977 10.0211C16.3977 10.8632 16.2363 11.6632 15.9135 12.4211C15.5907 13.1789 15.1486 13.8386 14.5872 14.4C14.0258 14.9614 13.3662 15.4035 12.6083 15.7263C11.8504 16.0491 11.0504 16.2105 10.2083 16.2105C9.36615 16.2105 8.57317 16.0491 7.82931 15.7263C7.08545 15.4035 6.43282 14.9614 5.87141 14.4C5.31001 13.8386 4.86791 13.1789 4.5451 12.4211C4.22229 11.6632 4.06089 10.8632 4.06089 10.0211C4.06089 9.51579 4.13106 9.01053 4.27141 8.50526H2.50299V16.9684C2.50299 17.193 2.58019 17.3754 2.73457 17.5158C2.88896 17.6561 3.07843 17.7263 3.30299 17.7263H17.1556C17.3802 17.7263 17.5626 17.6561 17.703 17.5158C17.8433 17.3754 17.9135 17.193 17.9135 16.9684V8.50526ZM17.9135 3.11579C17.9135 2.89123 17.8433 2.70175 17.703 2.54737C17.5626 2.39298 17.3802 2.31579 17.1556 2.31579H14.8398C14.6153 2.31579 14.4328 2.39298 14.2925 2.54737C14.1521 2.70175 14.0819 2.89123 14.0819 3.11579V5.38947C14.0819 5.61403 14.1521 5.80351 14.2925 5.95789C14.4328 6.11228 14.6153 6.18947 14.8398 6.18947H17.1556C17.3802 6.18947 17.5626 6.11228 17.703 5.95789C17.8433 5.80351 17.9135 5.61403 17.9135 5.38947V3.11579ZM10.2083 6.18947C9.14159 6.18947 8.23633 6.5614 7.49247 7.30526C6.74861 8.04912 6.37668 8.95439 6.37668 10.0211C6.37668 10.5544 6.47492 11.0596 6.67141 11.5368C6.86791 12.014 7.14159 12.4281 7.49247 12.7789C7.84334 13.1298 8.25036 13.4035 8.71352 13.6C9.17668 13.7965 9.67492 13.8947 10.2083 13.8947C10.7416 13.8947 11.2469 13.7965 11.724 13.6C12.2012 13.4035 12.6153 13.1298 12.9662 12.7789C13.317 12.4281 13.5907 12.014 13.7872 11.5368C13.9837 11.0596 14.0819 10.5544 14.0819 10.0211C14.0819 9.48772 13.9837 8.98947 13.7872 8.52632C13.5907 8.06316 13.317 7.65614 12.9662 7.30526C12.6153 6.95439 12.2012 6.6807 11.724 6.48421C11.2469 6.28772 10.7416 6.18947 10.2083 6.18947ZM2.50299 20.0421C1.85738 20.0421 1.31703 19.8175 0.881941 19.3684C0.446853 18.9193 0.229309 18.3719 0.229309 17.7263V2.31579C0.229309 1.67018 0.446853 1.12281 0.881941 0.673684C1.31703 0.224561 1.85738 0 2.50299 0H17.9135C18.5591 0 19.1065 0.224561 19.5556 0.673684C20.0047 1.12281 20.2293 1.67018 20.2293 2.31579V17.7263C20.2293 18.3719 20.0047 18.9193 19.5556 19.3684C19.1065 19.8175 18.5591 20.0421 17.9135 20.0421H2.50299Z" fill="#F2F7F4"/>
</svg>
