<svg width="24" height="25" viewBox="0 0 24 25" fill="none" xmlns="http://www.w3.org/2000/svg">
<g clip-path="url(#clip0_1_1487)">
<path d="M23.895 8.96338C23.8084 8.67604 23.6541 8.41369 23.445 8.19838C23.2854 8.02623 23.0806 7.90251 22.854 7.84138C22.965 8.01688 23.0655 8.21938 23.1405 8.43538C23.2245 8.65588 23.2785 8.89138 23.295 9.13588C23.3203 9.34712 23.3203 9.56063 23.295 9.77188C23.2482 9.6153 23.1763 9.46737 23.082 9.33388C22.8962 9.08283 22.648 8.88477 22.362 8.75938C22.0452 8.61671 21.6868 8.59631 21.3558 8.70211C21.0249 8.8079 20.7448 9.0324 20.5695 9.33238C20.4945 9.45538 20.4345 9.58888 20.3895 9.73138C18.6165 6.77938 15.426 4.82488 11.778 4.82488C11.592 4.82488 11.4075 4.82938 11.2245 4.83988C10.0927 4.84199 8.96664 4.99998 7.87799 5.30938C7.78499 4.65838 6.92999 3.33838 2.99999 3.33838L4.19999 7.10338C3.44541 7.71334 2.81108 8.45855 2.32949 9.30088L-1.10799e-05 9.33838C-1.10799e-05 9.33838 -0.255011 15.3384 1.49999 15.3384H2.30999C2.86142 16.2731 3.59921 17.0844 4.47749 17.7219L4.49999 21.3369H6.11999C8.08499 21.3369 8.99999 21.3369 8.99999 20.2119V19.6269C10.513 19.9072 12.065 19.9032 13.5765 19.6149L13.5 20.2119C13.5 21.3369 14.43 21.3369 16.41 21.3369H18V17.7519C19.4065 16.7767 20.4188 15.3315 20.8545 13.6764C20.94 13.6359 21.0255 13.6404 21.1125 13.6404C21.1995 13.6404 21.285 13.6359 21.3705 13.6254C21.747 13.5564 22.0905 13.4094 22.389 13.2009C22.7924 12.9155 23.1012 12.5158 23.2755 12.0534C23.3175 11.9139 23.349 11.7669 23.37 11.6154L23.3715 11.6004C23.703 11.2074 23.9295 10.7154 24 10.1739C24.0613 9.7601 24.0243 9.3377 23.892 8.94088L23.895 8.96338ZM5.26499 8.96338C5.56336 8.96338 5.84951 9.08191 6.06048 9.29288C6.27146 9.50386 6.38999 9.79001 6.38999 10.0884C6.38999 10.3867 6.27146 10.6729 6.06048 10.8839C5.84951 11.0949 5.56336 11.2134 5.26499 11.2134C4.96662 11.2134 4.68047 11.0949 4.46949 10.8839C4.25851 10.6729 4.13999 10.3867 4.13999 10.0884C4.13999 9.79001 4.25851 9.50386 4.46949 9.29288C4.68047 9.08191 4.96662 8.96338 5.26499 8.96338ZM8.81999 7.83838C8.65059 7.89271 8.46743 7.88531 8.30296 7.81749C8.1385 7.74968 8.00336 7.62582 7.92149 7.46788C7.89597 7.38918 7.88744 7.30596 7.89646 7.22371C7.90547 7.14147 7.93183 7.06207 7.97379 6.99077C8.01575 6.91946 8.07236 6.85787 8.13988 6.81005C8.2074 6.76224 8.2843 6.72929 8.36549 6.71338C9.35207 6.47681 10.3646 6.36593 11.379 6.38338L11.5305 6.38188C12.5385 6.38188 13.5165 6.50188 14.454 6.72988C14.643 6.76588 14.847 7.00288 14.847 7.28788C14.8469 7.34851 14.8373 7.40874 14.8185 7.46638C14.766 7.56363 14.6919 7.64758 14.6019 7.7118C14.512 7.77602 14.4085 7.8188 14.2995 7.83688H14.07C13.232 7.6351 12.3729 7.53438 11.511 7.53688H11.3775C10.47 7.53688 9.58799 7.64638 8.74349 7.85338L8.81999 7.83838ZM21.87 12.2334C21.6676 12.3806 21.4358 12.4824 21.1905 12.5319L21 12.5484V11.8734C21.2475 12.0609 21.561 12.1734 21.9 12.1734H21.9315L21.87 12.2334ZM21.99 11.2134C21.8506 11.2329 21.7085 11.2074 21.5847 11.1404C21.4608 11.0735 21.3616 10.9687 21.3015 10.8414C21.2328 10.7104 21.197 10.5646 21.1972 10.4167C21.1975 10.2688 21.2338 10.1231 21.303 9.99238C21.3743 9.89367 21.4793 9.8245 21.5982 9.79797C21.717 9.77144 21.8415 9.78937 21.948 9.84838C22.0839 9.90055 22.2008 9.9927 22.2833 10.1127C22.3658 10.2326 22.41 10.3748 22.41 10.5204C22.4396 10.7284 22.4391 10.941 22.4085 11.1489C22.2692 11.1757 22.1273 11.1868 21.9855 11.1819L21.99 11.2134Z" fill="#010A03" fill-opacity="0.85"/>
</g>
<defs>
<clipPath id="clip0_1_1487">
<rect width="24" height="24" fill="white" transform="translate(0 0.338379)"/>
</clipPath>
</defs>
</svg>
