<svg width="11" height="12" viewBox="0 0 11 12" fill="none" xmlns="http://www.w3.org/2000/svg">
<path fill-rule="evenodd" clip-rule="evenodd" d="M0.77932 1.17339C0.797192 1.02196 0.850179 0.876785 0.934062 0.749443C1.01794 0.622101 1.13041 0.516106 1.26249 0.439901C1.39457 0.363696 1.54262 0.319386 1.69484 0.310502C1.84707 0.301617 1.99927 0.328403 2.13932 0.388726C2.84732 0.691392 4.43399 1.41073 6.44732 2.57273C8.46132 3.73539 9.87799 4.75073 10.4933 5.21139C11.0187 5.60539 11.02 6.38673 10.494 6.78206C9.88465 7.24006 8.48532 8.24206 6.44732 9.41939C4.40732 10.5967 2.83932 11.3074 2.13799 11.6061C1.53399 11.8641 0.857987 11.4727 0.77932 10.8214C0.68732 10.0601 0.51532 8.33139 0.51532 5.99673C0.51532 3.66339 0.686653 1.93539 0.77932 1.17339Z" fill="#F2F7F3"/>
</svg>
