<svg width="24" height="25" viewBox="0 0 24 25" fill="none" xmlns="http://www.w3.org/2000/svg">
<g clip-path="url(#clip0_1_1493)">
<path d="M22.8 13.5384C22.721 14.9758 22.2984 16.3733 21.5676 17.6136C20.8368 18.8539 19.8191 19.9008 18.6 20.6664L12 24.3384L5.40001 20.6664C4.1809 19.9008 3.16322 18.8539 2.43241 17.6136C1.7016 16.3733 1.27898 14.9758 1.20001 13.5384V3.93838C5.25601 3.93838 9.00001 2.59438 12 0.338379C15 2.60638 18.744 3.93838 22.8 3.93838V13.5384ZM12 14.8344L15.504 17.2824L14.268 13.1904L17.676 10.6104L13.404 10.5144L12 6.48238L10.596 10.5144L6.32401 10.6104L9.72001 13.1784L8.48401 17.2584L12 14.8464V14.8344Z" fill="#010A03" fill-opacity="0.85"/>
</g>
<defs>
<clipPath id="clip0_1_1493">
<rect width="24" height="24" fill="white" transform="translate(0 0.338379)"/>
</clipPath>
</defs>
</svg>
