<svg width="35" height="35" viewBox="0 0 35 35" fill="none" xmlns="http://www.w3.org/2000/svg">
<rect x="2.09024" y="2.23134" width="30.6576" height="30.6576" rx="10" fill="#97E2A3"/>
<path d="M20.8132 20.9599C21.2033 20.9599 21.5099 21.2665 21.5099 21.6567C21.5099 22.0469 21.2033 22.3535 20.8132 22.3535C20.423 22.3535 20.1164 22.0399 20.1164 21.6567C20.1164 21.2735 20.423 20.9599 20.8132 20.9599ZM20.8132 18.8697C22.7153 18.8697 24.3388 20.0263 24.9937 21.6567C24.3388 23.2871 22.7153 24.4438 20.8132 24.4438C18.911 24.4438 17.2875 23.2871 16.6326 21.6567C17.2875 20.0263 18.911 18.8697 20.8132 18.8697ZM20.8132 19.9148C20.3512 19.9148 19.9081 20.0983 19.5814 20.425C19.2548 20.7517 19.0712 21.1947 19.0712 21.6567C19.0712 22.1187 19.2548 22.5618 19.5814 22.8884C19.9081 23.2151 20.3512 23.3986 20.8132 23.3986C21.2751 23.3986 21.7182 23.2151 22.0449 22.8884C22.3715 22.5618 22.5551 22.1187 22.5551 21.6567C22.5551 21.1947 22.3715 20.7517 22.0449 20.425C21.7182 20.0983 21.2751 19.9148 20.8132 19.9148ZM21.5099 11.2889H11.7552C10.9888 11.2889 10.3617 11.916 10.3617 12.6824V21.0436C10.3617 21.81 10.9888 22.4371 11.7552 22.4371H15.5317C15.4202 22.2141 15.3227 21.9772 15.239 21.7403C15.3227 21.5034 15.4202 21.2665 15.5317 21.0436H11.7552V18.2565H15.9358V20.3259C16.319 19.7267 16.7928 19.2111 17.3293 18.786V18.2565H18.1306C18.9389 17.8106 19.8516 17.5597 20.8132 17.5597C21.5517 17.5597 22.2555 17.7061 22.9034 17.9708V12.6824C22.9034 11.916 22.2764 11.2889 21.5099 11.2889ZM15.9358 16.863H11.7552V14.0759H15.9358V16.863ZM21.5099 16.863H17.3293V14.0759H21.5099V16.863Z" fill="#10691F"/>
</svg>
