<svg width="21" height="20" viewBox="0 0 21 20" fill="none" xmlns="http://www.w3.org/2000/svg">
<g clip-path="url(#clip0_118_274)">
<path fill-rule="evenodd" clip-rule="evenodd" d="M11.896 1.66675C12.338 1.66675 12.7619 1.84234 13.0745 2.1549C13.387 2.46746 13.5626 2.89139 13.5626 3.33341C13.5631 3.90934 13.7621 4.46751 14.1261 4.9138C14.4901 5.3601 14.9969 5.66723 15.561 5.78341C15.9941 5.87138 16.3746 6.12782 16.6188 6.49633C16.8629 6.86484 16.9506 7.31523 16.8626 7.74842C16.7747 8.1816 16.5182 8.5621 16.1497 8.80621C15.7812 9.05032 15.3308 9.13804 14.8976 9.05008C14.4362 8.9562 13.9879 8.80649 13.5626 8.60425V13.3334C13.5626 14.2686 13.3003 15.1851 12.8055 15.9786C12.3107 16.7722 11.6032 17.4111 10.7635 17.8228C9.92377 18.2344 8.98543 18.4023 8.05507 18.3074C7.1247 18.2124 6.23961 17.8585 5.50033 17.2857C4.76106 16.7129 4.19724 15.9443 3.87292 15.0672C3.5486 14.19 3.47678 13.2395 3.66562 12.3235C3.85447 11.4076 4.29641 10.563 4.94123 9.88566C5.58605 9.20831 6.40792 8.72539 7.31346 8.49175C7.7388 8.38917 8.18743 8.45797 8.56249 8.68329C8.93755 8.90861 9.20896 9.27238 9.31814 9.69608C9.42732 10.1198 9.36551 10.5694 9.14605 10.9479C8.92658 11.3265 8.56707 11.6035 8.14512 11.7192C7.75444 11.8229 7.41467 12.0649 7.18897 12.4002C6.96327 12.7355 6.86698 13.1414 6.91801 13.5424C6.96904 13.9434 7.1639 14.3122 7.46639 14.5803C7.76888 14.8484 8.15842 14.9976 8.56262 15.0001C9.00465 15.0001 9.42857 14.8245 9.74113 14.5119C10.0537 14.1994 10.2293 13.7754 10.2293 13.3334V3.33341C10.2293 2.89139 10.4049 2.46746 10.7174 2.1549C11.03 1.84234 11.4539 1.66675 11.896 1.66675Z" fill="#F2F7F4"/>
</g>
<defs>
<clipPath id="clip0_118_274">
<rect width="20" height="20" fill="white" transform="translate(0.229309)"/>
</clipPath>
</defs>
</svg>
