<svg width="20" height="20" viewBox="0 0 20 20" fill="none" xmlns="http://www.w3.org/2000/svg">
<path d="M18.6788 4.98516C15.9418 0.244608 9.72668 -1.42073 4.98613 1.31623C0.237226 4.05801 -1.41473 10.277 1.32223 15.0176C4.0638 19.7661 10.2607 21.4192 15.0096 18.6774C19.7502 15.9405 21.4205 9.73406 18.6788 4.98516ZM7.43241 11.4889C5.63405 8.37403 4.93741 4.98622 7.15027 3.70863L7.45674 3.53168C8.12924 3.14341 8.74908 3.27359 9.05834 4.02559C9.28748 4.61954 9.50676 5.19643 9.83192 6.13195C10.0948 6.84298 9.8864 7.18986 9.32097 7.52793L8.82396 7.82602C8.67943 7.90946 8.63859 8.1146 8.67861 8.26192C8.79122 8.67332 9.12497 9.38892 9.60632 10.2226C10.0879 11.0567 10.5806 11.7139 10.8405 12.0064C10.9481 12.1147 11.1168 12.21 11.2955 12.1069L11.7977 11.8169C12.3815 11.4914 12.7824 11.4982 13.2618 12.0726C13.9378 12.8511 14.3146 13.3259 14.7042 13.8045C15.2008 14.4483 14.9953 15.055 14.3307 15.4386L14.0246 15.6154C11.8034 16.8978 9.22092 14.5867 7.43241 11.4889Z" fill="#19A530"/>
</svg>
