<svg width="192" height="92" viewBox="0 0 192 92" fill="none" xmlns="http://www.w3.org/2000/svg">
<path d="M27.8262 61.7236L26.3496 43.0732H26.1562L19.7051 61.5303H15.4336L9 43.0732H8.80664L7.3125 61.7236H0.158203L2.9707 30.2764H10.5996L17.5781 48.417L24.5566 30.2764H32.1855L34.998 61.7236H27.8262Z" fill="#F2F7F4"/>
<path d="M73.0547 29.9863V50.2539C73.0547 54.1211 72.0088 57.0522 69.9258 59.043C67.8516 61.0249 64.8018 62.0137 60.7852 62.0137C56.7642 62.0137 53.71 61.0249 51.627 59.043C49.5396 57.0522 48.498 54.1211 48.498 50.2539V29.9863H55.6699V48.1621C55.6699 50.7065 56.0654 52.4775 56.8652 53.4707C57.6738 54.4551 58.979 54.9473 60.7852 54.9473C62.5869 54.9473 63.8877 54.4551 64.6875 53.4707C65.4961 52.4775 65.9004 50.7065 65.9004 48.1621V29.9863H73.0547Z" fill="#F2F7F4"/>
<path d="M93.7266 42.1943V61.7236H86.5547V30.2764H93.7266L106.225 49.7881H106.312V30.2764H113.467V61.7236H106.312L93.7969 42.1943H93.7266Z" fill="#F2F7F4"/>
<path d="M152.824 5.67883L144.347 0.783325C143.684 0.401001 142.875 0.401001 142.216 0.783325L133.734 5.67883L143.279 11.1896L152.824 5.67883Z" fill="#F2F7F4"/>
<mask id="mask0_60_129" style="mask-type:luminance" maskUnits="userSpaceOnUse" x="132" y="8" width="23" height="18">
<path d="M132.188 8.271H154.371V25.3042H132.188V8.271Z" fill="white"/>
</mask>
<g mask="url(#mask0_60_129)">
<path d="M144.826 13.8691V19.1689C144.826 20.0259 144.136 20.7158 143.279 20.7158C142.422 20.7158 141.732 20.0259 141.732 19.1689V13.8691L132.188 8.36279V18.1494C132.188 18.9097 132.592 19.6128 133.251 19.9951L141.728 24.8906C142.69 25.4443 143.868 25.4443 144.826 24.8906L153.308 19.9951C153.967 19.6128 154.371 18.9097 154.371 18.1494V8.36279L144.826 13.8691Z" fill="#F2F7F4"/>
</g>
<mask id="mask1_60_129" style="mask-type:luminance" maskUnits="userSpaceOnUse" x="138" y="36" width="22" height="17">
<path d="M138.217 36.2729H159.592V52.023H138.217V36.2729Z" fill="white"/>
</mask>
<g mask="url(#mask1_60_129)">
<mask id="mask2_60_129" style="mask-type:luminance" maskUnits="userSpaceOnUse" x="124" y="24" width="40" height="40">
<path d="M143.433 24.7378L163.156 44.1528L143.741 63.8755L124.018 44.4604L143.433 24.7378Z" fill="white"/>
</mask>
<g mask="url(#mask2_60_129)">
<mask id="mask3_60_129" style="mask-type:luminance" maskUnits="userSpaceOnUse" x="124" y="24" width="40" height="40">
<path d="M143.433 24.7378L163.156 44.1528L143.741 63.8755L124.018 44.4604L143.433 24.7378Z" fill="white"/>
</mask>
<g mask="url(#mask3_60_129)">
<path d="M159.289 44.1838C159.258 40.3078 156.094 37.1965 152.218 37.2273L146.69 37.2668C146.931 37.4602 147.164 37.6711 147.388 37.8909C148.096 38.5852 148.672 39.3718 149.107 40.2287L152.244 40.2068C153.321 40.198 154.336 40.6067 155.105 41.3625C155.87 42.1184 156.3 43.1291 156.305 44.2058C156.318 45.2825 155.905 46.2976 155.149 47.0666C154.393 47.8313 153.382 48.2619 152.306 48.2663L146.171 48.3191C145.094 48.3279 144.079 47.9148 143.31 47.1589C142.546 46.4031 142.115 45.3923 142.11 44.3157C142.102 43.7927 142.198 43.2829 142.387 42.8083C142.014 42.4831 141.539 42.303 141.043 42.3074L139.408 42.3249C139.219 42.9621 139.122 43.6389 139.127 44.342C139.157 48.2136 142.321 51.3293 146.197 51.2986L152.332 51.2502C156.204 51.2195 159.319 48.0554 159.289 44.1838Z" fill="#F2F7F4"/>
</g>
</g>
</g>
<mask id="mask4_60_129" style="mask-type:luminance" maskUnits="userSpaceOnUse" x="126" y="36" width="23" height="17">
<path d="M126.967 36.2729H148.342V52.023H126.967V36.2729Z" fill="white"/>
</mask>
<g mask="url(#mask4_60_129)">
<mask id="mask5_60_129" style="mask-type:luminance" maskUnits="userSpaceOnUse" x="124" y="24" width="40" height="40">
<path d="M143.433 24.7378L163.156 44.1528L143.741 63.8755L124.018 44.4604L143.433 24.7378Z" fill="white"/>
</mask>
<g mask="url(#mask5_60_129)">
<mask id="mask6_60_129" style="mask-type:luminance" maskUnits="userSpaceOnUse" x="124" y="24" width="40" height="40">
<path d="M143.433 24.7378L163.156 44.1528L143.741 63.8755L124.018 44.4604L143.433 24.7378Z" fill="white"/>
</mask>
<g mask="url(#mask6_60_129)">
<path d="M139.839 50.7536C139.135 50.0549 138.551 49.2595 138.112 48.3806L134.952 48.407C133.875 48.4158 132.86 48.0027 132.091 47.2468C131.326 46.4909 130.9 45.4846 130.891 44.4079C130.883 43.3269 131.291 42.3118 132.047 41.5471C132.803 40.7781 133.814 40.3518 134.89 40.343L141.025 40.2947C142.102 40.2859 143.117 40.699 143.886 41.4504C144.655 42.2107 145.081 43.217 145.09 44.2937C145.094 44.8166 144.998 45.3264 144.813 45.801C145.182 46.1306 145.657 46.3064 146.158 46.3064L147.793 46.2888C147.977 45.6516 148.074 44.9704 148.07 44.2717C148.039 40.4001 144.875 37.2844 141.003 37.3152L134.864 37.3635C130.992 37.3943 127.877 40.5583 127.907 44.4299C127.938 48.3015 131.102 51.4172 134.974 51.3865L140.498 51.3425C140.274 51.1579 140.054 50.9602 139.843 50.7536H139.839Z" fill="#F2F7F4"/>
</g>
</g>
</g>
<mask id="mask7_60_129" style="mask-type:luminance" maskUnits="userSpaceOnUse" x="135" y="62" width="16" height="30">
<path d="M135.729 62.9917H150.829V91.5034H135.729V62.9917Z" fill="white"/>
</mask>
<g mask="url(#mask7_60_129)">
<path d="M137.9 82.5132C137.9 82.5132 140.282 84.8335 143.38 84.8335C145.05 84.8335 146.566 83.9678 146.566 82.1704C146.566 78.457 136.103 78.8262 136.103 72.1729C136.103 68.9824 138.489 66.5039 141.921 65.9458V63.0366H144.584V65.8843C148.179 66.1919 150.034 68.1431 150.034 68.1431L148.307 71.4038C148.307 71.4038 146.197 69.4878 143.446 69.4878C141.592 69.4878 140.137 70.5688 140.137 72.1201C140.137 75.8027 150.57 75.1523 150.57 82.0957C150.57 85.251 148.373 87.9448 144.593 88.4414V91.2891H141.921V88.4238C137.931 87.9624 135.729 85.5146 135.729 85.5146L137.9 82.5132Z" fill="#F2F7F4"/>
</g>
<path d="M191.092 30.2764V36.5518H180.264V42.8096H190.635V49.1025H180.264V55.4307H191.092V61.7236H173.092V30.2764H191.092Z" fill="#F2F7F4"/>
</svg>
